<svg width="4349" height="6996" viewBox="0 0 4349 6996" fill="none" xmlns="http://www.w3.org/2000/svg">
<g clip-path="url(#clip0_332_86)">
<rect width="4347.17" height="6995.86" transform="translate(0.886719)" fill="#1E1E1E"/>
<path d="M-202.89 2606.37C-202.89 2123.86 -685.521 1782.77 -202.89 1782.77C279.742 1782.77 946.77 2123.86 946.77 2606.37C946.77 3088.88 555.519 3480.04 72.8874 3480.04C-409.744 3480.04 -202.89 3088.88 -202.89 2606.37ZM724.559 2606.37C724.559 2246.55 432.796 1954.86 72.8875 1954.86C-287.021 1954.86 -107.673 2246.55 -107.673 2606.37C-107.673 2966.19 -321.581 3426.45 38.327 3426.45C398.236 3426.45 724.559 2966.19 724.559 2606.37Z" fill="#1770B5" fill-opacity="0.15"/>
<path d="M4463.25 3961.33C4463.25 4443.84 4945.88 4784.93 4463.25 4784.93C3980.62 4784.93 3313.59 4443.84 3313.59 3961.33C3313.59 3478.81 3704.84 3087.66 4187.48 3087.66C4670.11 3087.66 4463.25 3478.81 4463.25 3961.33ZM3535.8 3961.33C3535.8 4321.15 3827.57 4612.84 4187.48 4612.84C4547.38 4612.84 4368.04 4321.15 4368.04 3961.33C4368.04 3601.51 4581.94 3141.25 4222.04 3141.25C3862.13 3141.25 3535.8 3601.51 3535.8 3961.33Z" fill="#1770B5" fill-opacity="0.15"/>
</g>
<defs>
<clipPath id="clip0_332_86">
<rect width="4347.17" height="6995.86" fill="white" transform="translate(0.886719)"/>
</clipPath>
</defs>
</svg>
