<svg width="4349" height="3644" viewBox="0 0 4349 3644" fill="none" xmlns="http://www.w3.org/2000/svg">
<g clip-path="url(#clip0_332_239)">
<rect width="4347.17" height="3643.33" transform="translate(0.832031)" fill="#1E1E1E"/>
<path d="M-202.944 1384.83C-202.944 902.314 -685.576 561.224 -202.944 561.224C279.687 561.224 946.715 902.314 946.715 1384.83C946.715 1867.34 555.464 2258.5 72.8327 2258.5C-409.799 2258.5 -202.944 1867.34 -202.944 1384.83ZM724.505 1384.83C724.505 1025.01 432.741 733.315 72.8328 733.315C-287.076 733.315 -107.727 1025.01 -107.727 1384.83C-107.727 1744.65 -321.636 2204.91 38.2724 2204.91C398.181 2204.91 724.505 1744.65 724.505 1384.83Z" fill="#1770B5" fill-opacity="0.15"/>
<path d="M4463.2 3073.19C4463.2 3555.7 4945.83 3896.79 4463.2 3896.79C3980.57 3896.79 3313.54 3555.7 3313.54 3073.19C3313.54 2590.67 3704.79 2199.52 4187.43 2199.52C4670.06 2199.52 4463.2 2590.67 4463.2 3073.19ZM3535.75 3073.19C3535.75 3433.01 3827.52 3724.7 4187.43 3724.7C4547.33 3724.7 4367.99 3433.01 4367.99 3073.19C4367.99 2713.37 4581.89 2253.11 4221.99 2253.11C3862.08 2253.11 3535.75 2713.37 3535.75 3073.19Z" fill="#1770B5" fill-opacity="0.15"/>
</g>
<defs>
<clipPath id="clip0_332_239">
<rect width="4347.17" height="3643.33" fill="white" transform="translate(0.832031)"/>
</clipPath>
</defs>
</svg>
