<svg width="4348" height="6996" viewBox="0 0 4348 6996" fill="none" xmlns="http://www.w3.org/2000/svg">
<g clip-path="url(#clip0_332_2)">
<rect width="4347.17" height="6995.86" fill="#1E1E1E"/>
<path d="M-203.782 2108.12C-203.782 1625.61 -686.414 1284.52 -203.782 1284.52C278.85 1284.52 945.877 1625.61 945.877 2108.12C945.877 2590.64 554.627 2981.79 71.9948 2981.79C-410.637 2981.79 -203.782 2590.64 -203.782 2108.12ZM723.667 2108.12C723.667 1748.3 431.903 1456.61 71.9949 1456.61C-287.914 1456.61 -108.565 1748.3 -108.565 2108.12C-108.565 2467.94 -322.474 2928.2 37.4345 2928.2C397.343 2928.2 723.667 2467.94 723.667 2108.12Z" fill="#1770B5" fill-opacity="0.15"/>
<path d="M4462.36 3504.75C4462.36 3987.27 4944.99 4328.36 4462.36 4328.36C3979.73 4328.36 3312.7 3987.27 3312.7 3504.75C3312.7 3022.24 3703.95 2631.09 4186.59 2631.09C4669.22 2631.09 4462.36 3022.24 4462.36 3504.75ZM3534.91 3504.75C3534.91 3864.58 3826.68 4156.27 4186.59 4156.27C4546.49 4156.27 4367.15 3864.58 4367.15 3504.75C4367.15 3144.93 4581.05 2684.68 4221.15 2684.68C3861.24 2684.68 3534.91 3144.93 3534.91 3504.75Z" fill="#1770B5" fill-opacity="0.15"/>
</g>
<defs>
<clipPath id="clip0_332_2">
<rect width="4347.17" height="6995.86" fill="white"/>
</clipPath>
</defs>
</svg>
