<svg width="4349" height="10090" viewBox="0 0 4349 10090" fill="none" xmlns="http://www.w3.org/2000/svg">
<g clip-path="url(#clip0_332_303)">
<rect width="4347.17" height="10090" transform="translate(0.941406)" fill="#1E1E1E"/>
<path d="M-202.835 2108.12C-202.835 1625.61 -685.467 1284.52 -202.835 1284.52C279.797 1284.52 946.824 1625.61 946.824 2108.12C946.824 2590.64 555.574 2981.79 72.942 2981.79C-409.69 2981.79 -202.835 2590.64 -202.835 2108.12ZM724.614 2108.12C724.614 1748.3 432.851 1456.61 72.9422 1456.61C-286.966 1456.61 -107.618 1748.3 -107.618 2108.12C-107.618 2467.94 -321.527 2928.2 38.3817 2928.2C398.29 2928.2 724.614 2467.94 724.614 2108.12Z" fill="#1770B5" fill-opacity="0.15"/>
<path d="M4463.31 3504.75C4463.31 3987.27 4945.94 4328.36 4463.31 4328.36C3980.68 4328.36 3313.65 3987.27 3313.65 3504.75C3313.65 3022.24 3704.9 2631.09 4187.53 2631.09C4670.16 2631.09 4463.31 3022.24 4463.31 3504.75ZM3535.86 3504.75C3535.86 3864.58 3827.62 4156.27 4187.53 4156.27C4547.44 4156.27 4368.09 3864.58 4368.09 3504.75C4368.09 3144.93 4582 2684.68 4222.09 2684.68C3862.18 2684.68 3535.86 3144.93 3535.86 3504.75Z" fill="#1770B5" fill-opacity="0.15"/>
</g>
<defs>
<clipPath id="clip0_332_303">
<rect width="4347.17" height="10090" fill="white" transform="translate(0.941406)"/>
</clipPath>
</defs>
</svg>
