<svg width="4326" height="32768" viewBox="0 0 4326 32768" fill="none" xmlns="http://www.w3.org/2000/svg">
<g clip-path="url(#clip0_447_51)">
<rect width="4325.17" height="32768" fill="#1E1E1E"/>
<path d="M-306.579 1415.13C-306.579 905.437 -816.395 545.136 -306.579 545.136C203.237 545.136 907.834 905.437 907.834 1415.13C907.834 1924.82 494.547 2338.01 -15.2692 2338.01C-525.085 2338.01 -306.579 1924.82 -306.579 1415.13ZM673.108 1415.13C673.108 1035.04 364.911 726.92 -15.2691 726.92C-395.449 726.92 -205.999 1035.04 -205.999 1415.13C-205.999 1795.22 -431.956 2281.4 -51.7762 2281.4C328.404 2281.4 673.108 1795.22 673.108 1415.13Z" fill="#1770B5" fill-opacity="0.15"/>
<path d="M4398.9 2808.03C4398.9 3259.34 4850.44 3578.37 4398.9 3578.37C3947.36 3578.37 3323.3 3259.34 3323.3 2808.03C3323.3 2356.71 3689.35 1990.85 4140.89 1990.85C4592.43 1990.85 4398.9 2356.71 4398.9 2808.03ZM3531.2 2808.03C3531.2 3144.58 3804.16 3417.41 4140.89 3417.41C4477.61 3417.41 4309.82 3144.58 4309.82 2808.03C4309.82 2471.47 4509.94 2040.98 4173.22 2040.98C3836.5 2040.98 3531.2 2471.47 3531.2 2808.03Z" fill="#1770B5" fill-opacity="0.15"/>
<path d="M3983.7 16763C3983.7 17228.4 4449.2 17557.4 3983.7 17557.4C3518.2 17557.4 2874.85 17228.4 2874.85 16763C2874.85 16297.6 3252.22 15920.4 3717.71 15920.4C4183.21 15920.4 3983.7 16297.6 3983.7 16763ZM3089.18 16763C3089.18 17110.1 3370.58 17391.4 3717.71 17391.4C4064.85 17391.4 3891.86 17110.1 3891.86 16763C3891.86 16416 4098.18 15972 3751.05 15972C3403.92 15972 3089.18 16416 3089.18 16763Z" fill="#1770B5" fill-opacity="0.15"/>
<path d="M4575.74 26441.7C4575.74 26851.1 4985.18 27140.4 4575.74 27140.4C4166.3 27140.4 3600.43 26851.1 3600.43 26441.7C3600.43 26032.4 3932.35 25700.6 4341.79 25700.6C4751.22 25700.6 4575.74 26032.4 4575.74 26441.7ZM3788.95 26441.7C3788.95 26747 4036.46 26994.4 4341.79 26994.4C4647.11 26994.4 4494.96 26747 4494.96 26441.7C4494.96 26136.5 4676.43 25746 4371.11 25746C4065.78 25746 3788.95 26136.5 3788.95 26441.7Z" fill="#1770B5" fill-opacity="0.15"/>
<path fill-rule="evenodd" clip-rule="evenodd" d="M864.808 274.235V320.962H895.879C901.456 320.962 906.276 320.006 910.339 318.094C914.482 316.102 917.629 313.433 919.78 310.087C921.932 306.661 923.007 302.837 923.007 298.614C923.007 295.268 922.25 292.121 920.736 289.173C919.302 286.226 917.311 283.756 914.761 281.764C912.291 279.772 909.543 278.537 906.515 278.059C910.897 276.625 914.403 274.315 917.032 271.128C919.741 267.862 921.095 263.758 921.095 258.819C921.095 254.835 920.099 251.25 918.107 248.063C916.116 244.876 913.128 242.367 909.144 240.534C905.161 238.622 900.341 237.666 894.684 237.666H876.778V246.629H893.728C898.986 246.629 903.01 247.824 905.798 250.214C908.587 252.605 909.981 255.911 909.981 260.133C909.981 264.356 908.587 267.662 905.798 270.052C903.01 272.443 899.066 273.638 893.967 273.638H876.778V274.235H864.808ZM386.967 321.799C381.47 321.799 376.53 320.843 372.148 318.931C367.846 316.939 364.46 314.23 361.99 310.804C359.521 307.299 358.246 303.275 358.166 298.734H369.758C370.157 302.638 371.75 305.944 374.539 308.653C377.407 311.282 381.55 312.597 386.967 312.597C392.146 312.597 396.209 311.322 399.157 308.773C402.184 306.143 403.698 302.797 403.698 298.734C403.698 295.547 402.822 292.958 401.069 290.966C399.316 288.974 397.125 287.461 394.496 286.425C391.867 285.389 388.322 284.274 383.86 283.079C378.363 281.645 373.941 280.21 370.595 278.776C367.328 277.342 364.5 275.112 362.11 272.084C359.799 268.977 358.644 264.834 358.644 259.655C358.644 255.114 359.799 251.091 362.11 247.585C364.42 244.08 367.647 241.371 371.79 239.459C376.012 237.547 380.833 236.591 386.25 236.591C394.058 236.591 400.432 238.543 405.371 242.447C410.39 246.35 413.219 251.529 413.856 257.982H401.905C401.507 254.795 399.834 252.007 396.886 249.617C393.938 247.147 390.035 245.912 385.175 245.912C380.633 245.912 376.929 247.107 374.061 249.497C371.192 251.808 369.758 255.074 369.758 259.297C369.758 262.324 370.595 264.794 372.268 266.706C374.021 268.618 376.132 270.092 378.602 271.128C381.151 272.084 384.697 273.199 389.238 274.474C394.735 275.988 399.157 277.502 402.503 279.015C405.849 280.45 408.717 282.72 411.107 285.827C413.498 288.855 414.693 292.998 414.693 298.256C414.693 302.319 413.617 306.143 411.466 309.729C409.315 313.314 406.128 316.222 401.905 318.453C397.683 320.683 392.704 321.799 386.967 321.799ZM497.5 237.666V246.51H474.794V320.962H463.919V246.51H441.093V237.666H497.5ZM575.659 302.439H575.652L572.504 293.595H572.552L557.494 251.529L542.437 293.595H542.872L539.744 302.439H539.329L532.637 320.962H521.164L551.28 238.144H563.828L593.824 320.962H582.352L575.659 302.439ZM618.422 279.254C618.422 271.128 620.254 263.838 623.919 257.385C627.584 250.852 632.564 245.753 638.858 242.088C645.231 238.423 652.282 236.591 660.01 236.591C669.093 236.591 677.02 238.782 683.792 243.164C690.564 247.545 695.504 253.76 698.611 261.807H685.584C683.274 256.787 679.928 252.923 675.546 250.214C671.244 247.506 666.065 246.151 660.01 246.151C654.194 246.151 648.976 247.506 644.355 250.214C639.734 252.923 636.109 256.787 633.48 261.807C630.851 266.746 629.536 272.562 629.536 279.254C629.536 285.867 630.851 291.683 633.48 296.702C636.109 301.642 639.734 305.466 644.355 308.175C648.976 310.884 654.194 312.238 660.01 312.238C666.065 312.238 671.244 310.924 675.546 308.294C679.928 305.586 683.274 301.722 685.584 296.702H698.611C695.504 304.669 690.564 310.844 683.792 315.226C677.02 319.528 669.093 321.679 660.01 321.679C652.282 321.679 645.231 319.887 638.858 316.301C632.564 312.637 627.584 307.577 623.919 301.124C620.254 294.671 618.422 287.381 618.422 279.254ZM775.508 320.962L741.21 282.959V320.962H730.335V237.666H741.21V276.267L775.628 237.666H789.371L751.607 279.374L789.73 320.962H775.508ZM894.923 311.999C900.341 311.999 904.563 310.724 907.591 308.175C910.618 305.626 912.132 302.08 912.132 297.539C912.132 292.918 910.539 289.293 907.352 286.664C904.165 283.955 899.903 282.601 894.565 282.601H875.683V311.999H894.923ZM964.509 312.119H993.669V320.962H953.634V237.666H964.509V312.119ZM1058.52 321.799C1050.79 321.799 1043.74 320.006 1037.37 316.421C1030.99 312.756 1025.93 307.697 1022.19 301.244C1018.52 294.711 1016.69 287.381 1016.69 279.254C1016.69 271.128 1018.52 263.838 1022.19 257.385C1025.93 250.852 1030.99 245.793 1037.37 242.207C1043.74 238.543 1050.79 236.71 1058.52 236.71C1066.33 236.71 1073.42 238.543 1079.79 242.207C1086.16 245.793 1091.18 250.812 1094.85 257.265C1098.51 263.719 1100.35 271.048 1100.35 279.254C1100.35 287.461 1098.51 294.79 1094.85 301.244C1091.18 307.697 1086.16 312.756 1079.79 316.421C1073.42 320.006 1066.33 321.799 1058.52 321.799ZM1058.52 312.358C1064.33 312.358 1069.55 311.003 1074.17 308.294C1078.87 305.586 1082.54 301.722 1085.17 296.702C1087.88 291.683 1089.23 285.867 1089.23 279.254C1089.23 272.562 1087.88 266.746 1085.17 261.807C1082.54 256.787 1078.91 252.923 1074.29 250.214C1069.67 247.506 1064.41 246.151 1058.52 246.151C1052.62 246.151 1047.36 247.506 1042.74 250.214C1038.12 252.923 1034.46 256.787 1031.75 261.807C1029.12 266.746 1027.8 272.562 1027.8 279.254C1027.8 285.867 1029.12 291.683 1031.75 296.702C1034.46 301.722 1038.12 305.586 1042.74 308.294C1047.44 311.003 1052.7 312.358 1058.52 312.358ZM1126.17 279.254C1126.17 271.128 1128.01 263.838 1131.67 257.385C1135.34 250.852 1140.32 245.753 1146.61 242.088C1152.98 238.423 1160.03 236.591 1167.76 236.591C1176.84 236.591 1184.77 238.782 1191.54 243.164C1198.32 247.545 1203.26 253.76 1206.36 261.807H1193.34C1191.03 256.787 1187.68 252.923 1183.3 250.214C1179 247.506 1173.82 246.151 1167.76 246.151C1161.95 246.151 1156.73 247.506 1152.11 250.214C1147.49 252.923 1143.86 256.787 1141.23 261.807C1138.6 266.746 1137.29 272.562 1137.29 279.254C1137.29 285.867 1138.6 291.683 1141.23 296.702C1143.86 301.642 1147.49 305.466 1152.11 308.175C1156.73 310.884 1161.95 312.238 1167.76 312.238C1173.82 312.238 1179 310.924 1183.3 308.294C1187.68 305.586 1191.03 301.722 1193.34 296.702H1206.36C1203.26 304.669 1198.32 310.844 1191.54 315.226C1184.77 319.528 1176.84 321.679 1167.76 321.679C1160.03 321.679 1152.98 319.887 1146.61 316.301C1140.32 312.637 1135.34 307.577 1131.67 301.124C1128.01 294.671 1126.17 287.381 1126.17 279.254ZM1283.26 320.962L1248.96 282.959V320.962H1238.09V237.666H1248.96V276.267L1283.38 237.666H1297.12L1259.36 279.374L1297.48 320.962H1283.26ZM1351.57 321.799C1346.08 321.799 1341.14 320.843 1336.76 318.931C1332.45 316.939 1329.07 314.23 1326.6 310.804C1324.13 307.299 1322.85 303.275 1322.77 298.734H1334.37C1334.76 302.638 1336.36 305.944 1339.15 308.653C1342.01 311.282 1346.16 312.597 1351.57 312.597C1356.75 312.597 1360.82 311.322 1363.76 308.773C1366.79 306.143 1368.31 302.797 1368.31 298.734C1368.31 295.547 1367.43 292.958 1365.68 290.966C1363.92 288.974 1361.73 287.461 1359.1 286.425C1356.47 285.389 1352.93 284.274 1348.47 283.079C1342.97 281.645 1338.55 280.21 1335.2 278.776C1331.94 277.342 1329.11 275.112 1326.72 272.084C1324.41 268.977 1323.25 264.834 1323.25 259.655C1323.25 255.114 1324.41 251.091 1326.72 247.585C1329.03 244.08 1332.25 241.371 1336.4 239.459C1340.62 237.547 1345.44 236.591 1350.86 236.591C1358.67 236.591 1365.04 238.543 1369.98 242.447C1375 246.35 1377.83 251.529 1378.46 257.982H1366.51C1366.11 254.795 1364.44 252.007 1361.49 249.617C1358.55 247.147 1354.64 245.912 1349.78 245.912C1345.24 245.912 1341.54 247.107 1338.67 249.497C1335.8 251.808 1334.37 255.074 1334.37 259.297C1334.37 262.324 1335.2 264.794 1336.88 266.706C1338.63 268.618 1340.74 270.092 1343.21 271.128C1345.76 272.084 1349.3 273.199 1353.85 274.474C1359.34 275.988 1363.76 277.502 1367.11 279.015C1370.46 280.45 1373.32 282.72 1375.71 285.827C1378.1 288.855 1379.3 292.998 1379.3 298.256C1379.3 302.319 1378.22 306.143 1376.07 309.729C1373.92 313.314 1370.74 316.222 1366.51 318.453C1362.29 320.683 1357.31 321.799 1351.57 321.799Z" fill="white"/>
<rect x="148.28" y="250.488" width="151.971" height="26.2667" fill="#1770B5"/>
<rect x="122.025" y="319.907" width="151.971" height="26.2667" fill="#1770B5"/>
<rect x="122.025" y="215.779" width="151.971" height="26.2667" fill="#1770B5"/>
<rect x="95.7671" y="285.197" width="151.971" height="26.2667" fill="#1770B5"/>
<g filter="url(#filter0_d_447_51)">
<path d="M1388.6 237.344V238.669H1385.2V249.821H1383.57V238.669H1380.15V237.344H1388.6ZM1405.59 237.434V249.821H1403.96V240.584L1399.84 249.821H1398.7L1394.56 240.566V249.821H1392.93V237.434H1394.69L1399.27 247.673L1403.85 237.434H1405.59Z" fill="white"/>
</g>
<rect x="1403.94" y="151.49" width="48.875" height="48.875" fill="#549CD5"/>
<rect x="1440.61" y="122.472" width="22.9101" height="22.9101" fill="#9DD1FA"/>
<rect x="1379.54" y="157.599" width="13.7461" height="13.7461" fill="#1770B5"/>
<rect x="1463.53" y="200.364" width="6.10937" height="6.10937" fill="#1563A8"/>
</g>
<defs>
<filter id="filter0_d_447_51" x="1379.92" y="237.116" width="25.8946" height="12.9339" filterUnits="userSpaceOnUse" color-interpolation-filters="sRGB">
<feFlood flood-opacity="0" result="BackgroundImageFix"/>
<feColorMatrix in="SourceAlpha" type="matrix" values="0 0 0 0 0 0 0 0 0 0 0 0 0 0 0 0 0 0 127 0" result="hardAlpha"/>
<feOffset/>
<feGaussianBlur stdDeviation="0.123934"/>
<feColorMatrix type="matrix" values="0 0 0 0 1 0 0 0 0 1 0 0 0 0 1 0 0 0 1 0"/>
<feBlend mode="normal" in2="BackgroundImageFix" result="effect1_dropShadow_447_51"/>
<feBlend mode="normal" in="SourceGraphic" in2="effect1_dropShadow_447_51" result="shape"/>
</filter>
<clipPath id="clip0_447_51">
<rect width="4697" height="35585" fill="white" transform="scale(0.920837)"/>
</clipPath>
</defs>
</svg>
