<svg width="714" height="745" viewBox="0 0 714 745" fill="none" xmlns="http://www.w3.org/2000/svg">
<path d="M327.165 352.281L327.165 352.281C329.371 351.007 332.088 351.007 334.294 352.281L334.294 352.281L387.429 382.959C387.429 382.959 387.429 382.959 387.429 382.959C389.635 384.234 390.994 386.587 390.994 389.133C390.994 391.679 389.635 394.033 387.429 395.306L387.429 395.306L334.294 425.984C333.192 426.62 331.961 426.94 330.73 426.94C329.499 426.94 328.267 426.62 327.165 425.984C324.959 424.709 323.601 422.357 323.601 419.811V358.455C323.601 355.909 324.959 353.555 327.165 352.281ZM339.047 371.488L337.858 370.802V372.174V406.092V407.464L339.047 406.778L368.419 389.819L369.607 389.133L368.419 388.447L339.047 371.488Z" fill="#407BFF" stroke="#407BFF" stroke-width="1.58419"/>
<path d="M563.253 648.731H150.835C146.898 648.731 143.706 645.541 143.706 641.603C143.706 637.665 146.898 634.474 150.835 634.474H563.253C567.191 634.474 570.382 637.665 570.382 641.603C570.382 645.541 567.191 648.731 563.253 648.731Z" fill="#407BFF" stroke="#407BFF" stroke-width="1.58419"/>
<path d="M563.253 110.101H150.835C146.899 110.101 143.706 106.908 143.706 102.972C143.706 99.0353 146.899 95.8429 150.835 95.8429H563.253C567.191 95.8429 570.382 99.0352 570.382 102.972C570.382 106.908 567.191 110.101 563.253 110.101Z" fill="#407BFF" stroke="#407BFF" stroke-width="1.58419"/>
<path d="M373.195 62.5762H309.827C305.891 62.5762 302.698 59.3838 302.698 55.4473C302.698 51.5108 305.891 48.3185 309.827 48.3185H373.195C377.133 48.3185 380.324 51.5107 380.324 55.4473C380.324 59.3839 377.133 62.5762 373.195 62.5762Z" fill="#407BFF" stroke="#407BFF" stroke-width="1.58419"/>
<path d="M389.027 696.252H325.659C321.723 696.252 318.53 693.061 318.53 689.123C318.53 685.185 321.723 681.994 325.659 681.994H389.027C392.965 681.994 396.156 685.185 396.156 689.123C396.156 693.061 392.965 696.252 389.027 696.252Z" fill="#407BFF" stroke="#407BFF" stroke-width="1.58419"/>
<path d="M40.4916 553.679C19.0909 553.679 1.67882 536.267 1.67882 514.867C1.67882 493.466 19.0909 476.054 40.4916 476.054C61.8922 476.054 79.3043 493.466 79.3043 514.867C79.3043 536.267 61.8922 553.679 40.4916 553.679ZM40.4916 490.312C26.9512 490.312 15.9366 501.326 15.9366 514.867C15.9366 528.407 26.9512 539.422 40.4916 539.422C54.0319 539.422 65.0466 528.407 65.0466 514.867C65.0466 501.326 54.0319 490.312 40.4916 490.312Z" fill="#407BFF" stroke="#407BFF" stroke-width="1.58419"/>
<path d="M666.256 284.363C640.488 284.363 619.523 263.398 619.523 237.629C619.523 211.861 640.488 190.896 666.256 190.896C692.025 190.896 712.99 211.861 712.99 237.629C712.99 263.398 692.025 284.363 666.256 284.363ZM666.256 205.153C648.348 205.153 633.78 219.721 633.78 237.629C633.78 255.537 648.348 270.105 666.256 270.105C684.164 270.105 698.732 255.537 698.732 237.629C698.732 219.721 684.164 205.153 666.256 205.153Z" fill="#407BFF" stroke="#407BFF" stroke-width="1.58419"/>
<path d="M24.6427 119.61C32.9517 119.61 39.6926 126.348 39.6926 134.66C39.6926 142.972 32.9517 149.71 24.6427 149.71C16.3307 149.71 9.59288 142.972 9.59288 134.66C9.59288 126.348 16.3307 119.61 24.6427 119.61Z" fill="#407BFF" stroke="#407BFF" stroke-width="1.58419"/>
<path d="M72.174 357.232C80.4829 357.232 87.2238 363.969 87.2238 372.281C87.2238 380.593 80.4829 387.331 72.174 387.331C63.8619 387.331 57.1241 380.593 57.1241 372.281C57.1241 363.969 63.8619 357.232 72.174 357.232Z" fill="#407BFF" stroke="#407BFF" stroke-width="1.58419"/>
<path d="M658.326 40.3956C666.635 40.3956 673.376 47.1335 673.376 55.4455C673.376 63.7574 666.635 70.4953 658.326 70.4953C650.014 70.4953 643.276 63.7575 643.276 55.4455C643.276 47.1334 650.014 40.3956 658.326 40.3956Z" fill="#407BFF" stroke="#407BFF" stroke-width="1.58419"/>
<path d="M404.834 167.133C413.143 167.133 419.884 173.871 419.884 182.183C419.884 190.495 413.143 197.233 404.834 197.233C396.522 197.233 389.784 190.495 389.784 182.183C389.784 173.871 396.522 167.133 404.834 167.133Z" fill="#407BFF" stroke="#407BFF" stroke-width="1.58419"/>
<path d="M420.697 40.3956C429.006 40.3956 435.747 47.1335 435.747 55.4455C435.747 63.7574 429.006 70.4953 420.697 70.4953C412.385 70.4953 405.648 63.7575 405.648 55.4455C405.648 47.1334 412.385 40.3956 420.697 40.3956Z" fill="#407BFF" stroke="#407BFF" stroke-width="1.58419"/>
<path d="M246.436 151.292C254.745 151.292 261.486 158.03 261.486 166.342C261.486 174.654 254.745 181.392 246.436 181.392C238.124 181.392 231.386 174.654 231.386 166.342C231.386 158.03 238.124 151.292 246.436 151.292Z" fill="#407BFF" stroke="#407BFF" stroke-width="1.58419"/>
<path d="M642.49 373.079C650.799 373.079 657.54 379.817 657.54 388.129C657.54 396.441 650.799 403.179 642.49 403.179C634.178 403.179 627.441 396.441 627.441 388.129C627.441 379.817 634.178 373.079 642.49 373.079Z" fill="#407BFF" stroke="#407BFF" stroke-width="1.58419"/>
<path d="M626.654 642.392C634.963 642.392 641.704 649.13 641.704 657.442C641.704 665.753 634.963 672.491 626.654 672.491C618.342 672.491 611.605 665.754 611.605 657.442C611.605 649.13 618.342 642.392 626.654 642.392Z" fill="#407BFF" stroke="#407BFF" stroke-width="1.58419"/>
<path d="M72.174 626.549C80.4829 626.549 87.2238 633.287 87.2238 641.599C87.2238 649.911 80.4829 656.649 72.174 656.649C63.8619 656.649 57.1241 649.911 57.1241 641.599C57.1241 633.287 63.8619 626.549 72.174 626.549Z" fill="#407BFF" stroke="#407BFF" stroke-width="1.58419"/>
<path d="M556.652 374.331L556.652 374.334L556.124 672.753L556.652 374.331ZM556.652 374.331L556.124 103.19V103.188V71.8163C556.124 40.5139 530.658 15.0498 499.358 15.0498H214.73C183.428 15.0498 157.964 40.514 157.964 71.8163M556.652 374.331L157.964 71.8163M157.964 71.8163V672.755M157.964 71.8163V672.755M157.964 672.755C157.964 704.056 183.428 729.521 214.73 729.521M157.964 672.755L214.73 729.521M214.73 729.521H499.358M214.73 729.521H499.358M499.358 729.521C530.658 729.521 556.123 704.056 556.124 672.755L499.358 729.521ZM570.382 103.174V103.175L570.91 374.329V374.332L570.382 672.766V672.768C570.382 711.916 538.52 743.779 499.358 743.779H214.73C175.568 743.779 143.706 711.918 143.706 672.755V71.8163C143.706 32.6536 175.568 0.792097 214.73 0.792097H499.358C538.52 0.792097 570.382 32.6536 570.382 71.8163V103.174Z" fill="#407BFF" stroke="#407BFF" stroke-width="1.58419"/>
<path d="M499.921 189.308C495.983 189.308 492.792 186.116 492.792 182.179V150.495C492.792 146.559 495.983 143.366 499.921 143.366C503.859 143.366 507.05 146.559 507.05 150.495V182.179C507.05 186.116 503.859 189.308 499.921 189.308Z" fill="#407BFF" stroke="#407BFF" stroke-width="1.58419"/>
<path d="M452.335 189.314C448.397 189.314 445.206 186.121 445.206 182.185V166.343C445.206 162.406 448.397 159.214 452.335 159.214C456.273 159.214 459.464 162.406 459.464 166.343V182.185C459.464 186.121 456.273 189.314 452.335 189.314Z" fill="#407BFF" stroke="#407BFF" stroke-width="1.58419"/>
<path d="M278.106 220.994H151.37C147.434 220.994 144.241 217.802 144.241 213.865C144.241 209.929 147.434 206.736 151.37 206.736H278.106C282.042 206.736 285.235 209.929 285.235 213.865C285.235 217.802 282.042 220.994 278.106 220.994Z" fill="#407BFF" stroke="#407BFF" stroke-width="1.58419"/>
<path d="M198.896 173.466H151.37C147.434 173.466 144.241 170.273 144.241 166.337C144.241 162.4 147.434 159.208 151.37 159.208H198.896C202.833 159.208 206.025 162.4 206.025 166.337C206.025 170.273 202.833 173.466 198.896 173.466Z" fill="#407BFF" stroke="#407BFF" stroke-width="1.58419"/>
<path d="M237.698 506.944V507.736H238.49H476.119H476.912V506.944V285.156V284.364H476.119H238.49H237.698V285.156V506.944ZM484.04 521.993H230.569C226.633 521.993 223.441 518.803 223.441 514.865V277.235C223.441 273.299 226.633 270.107 230.569 270.107H484.04C487.978 270.107 491.169 273.299 491.169 277.235V514.865C491.169 518.803 487.979 521.993 484.04 521.993Z" fill="#407BFF" stroke="#407BFF" stroke-width="1.58419"/>
<path d="M436.526 347.732C432.588 347.732 429.398 344.539 429.398 340.603V324.761C429.398 320.824 432.588 317.632 436.526 317.632C440.464 317.632 443.655 320.824 443.655 324.761V340.603C443.655 344.539 440.464 347.732 436.526 347.732Z" fill="#407BFF" stroke="#407BFF" stroke-width="1.58419"/>
<path d="M436.526 411.101C432.588 411.101 429.398 407.91 429.398 403.972V388.13C429.398 384.192 432.588 381.001 436.526 381.001C440.465 381.001 443.655 384.192 443.655 388.13V403.972C443.655 407.91 440.465 411.101 436.526 411.101Z" fill="#407BFF" stroke="#407BFF" stroke-width="1.58419"/>
<path d="M436.526 474.467C432.588 474.467 429.398 471.276 429.398 467.338V451.496C429.398 447.558 432.588 444.367 436.526 444.367C440.465 444.367 443.655 447.558 443.655 451.496V467.338C443.655 471.276 440.465 474.467 436.526 474.467Z" fill="#407BFF" stroke="#407BFF" stroke-width="1.58419"/>
<path d="M278.155 347.73C274.219 347.73 271.026 344.537 271.026 340.601V324.759C271.026 320.822 274.219 317.63 278.155 317.63C282.092 317.63 285.284 320.822 285.284 324.759V340.601C285.284 344.537 282.092 347.73 278.155 347.73Z" fill="#407BFF" stroke="#407BFF" stroke-width="1.58419"/>
<path d="M278.155 411.101C274.219 411.101 271.026 407.91 271.026 403.972V388.13C271.026 384.192 274.219 381.001 278.155 381.001C282.092 381.001 285.284 384.192 285.284 388.13V403.972C285.284 407.91 282.092 411.101 278.155 411.101Z" fill="#407BFF" stroke="#407BFF" stroke-width="1.58419"/>
<path d="M278.155 474.467C274.219 474.467 271.026 471.276 271.026 467.338V451.496C271.026 447.558 274.219 444.367 278.155 444.367C282.092 444.367 285.284 447.558 285.284 451.496V467.338C285.284 471.276 282.092 474.467 278.155 474.467Z" fill="#407BFF" stroke="#407BFF" stroke-width="1.58419"/>
<path d="M515.74 585.359H198.901C194.965 585.359 191.773 582.169 191.773 578.231C191.773 574.293 194.965 571.102 198.901 571.102H515.74C519.678 571.102 522.869 574.292 522.869 578.231C522.869 582.169 519.678 585.359 515.74 585.359Z" fill="#407BFF" stroke="#407BFF" stroke-width="1.58419"/>
<path d="M262.241 601.204C258.305 601.204 255.112 598.014 255.112 594.076V562.392C255.112 558.454 258.305 555.263 262.241 555.263C266.178 555.263 269.37 558.454 269.37 562.392V594.076C269.37 598.014 266.178 601.204 262.241 601.204Z" fill="#407BFF" stroke="#407BFF" stroke-width="1.58419"/>
</svg>
