<svg width="4694" height="20013" viewBox="0 0 4694 20013" fill="none" xmlns="http://www.w3.org/2000/svg">
<g clip-path="url(#clip0_224_2)">
<rect width="4693.81" height="20013" fill="#1E1E1E"/>
<path d="M-220.038 809.271C-220.038 288.262 -741.175 -80.0408 -220.038 -80.0408C301.099 -80.0407 1021.34 288.262 1021.34 809.271C1021.34 1330.28 598.878 1752.64 77.741 1752.64C-443.396 1752.64 -220.038 1330.28 -220.038 809.271ZM781.405 809.271C781.405 420.744 466.364 105.78 77.7412 105.78C-310.882 105.78 -117.224 420.744 -117.224 809.271C-117.224 1197.8 -348.199 1694.78 40.4234 1694.78C429.046 1694.78 781.405 1197.8 781.405 809.271Z" fill="#1770B5" fill-opacity="0.15"/>
<g opacity="0.5">
<rect x="4568.09" y="924.267" width="377.668" height="65.2759" fill="#1770B5"/>
<rect x="4502.83" y="1096.78" width="377.668" height="65.2759" fill="#1770B5"/>
<rect x="4502.83" y="838.008" width="377.668" height="65.2759" fill="#1770B5"/>
<rect x="4437.55" y="1010.52" width="377.668" height="65.2759" fill="#1770B5"/>
</g>
<g opacity="0.5">
<rect x="-90.8496" y="2464.49" width="377.668" height="65.2759" fill="#1770B5"/>
<rect x="-156.106" y="2637.01" width="377.668" height="65.2759" fill="#1770B5"/>
<rect x="-156.106" y="2378.24" width="377.668" height="65.2759" fill="#1770B5"/>
<rect x="-221.385" y="2550.75" width="377.668" height="65.2759" fill="#1770B5"/>
</g>
<g opacity="0.5">
<rect x="-90.8496" y="13272.9" width="377.668" height="65.2759" fill="#1770B5"/>
<rect x="-156.106" y="13445.5" width="377.668" height="65.2759" fill="#1770B5"/>
<rect x="-156.106" y="13186.7" width="377.668" height="65.2759" fill="#1770B5"/>
<rect x="-221.385" y="13359.2" width="377.668" height="65.2759" fill="#1770B5"/>
</g>
<mask id="path-14-inside-1_224_2" fill="white">
<path d="M4662.45 3806.18C4657.61 3806.18 4652.73 3805.53 4647.92 3804.21L4565.25 3781.59C4536.16 3773.63 4518.97 3743.5 4526.93 3714.4L4554.57 3613.42C4504 3587.32 4459.3 3552.66 4421.45 3510.19L4330.53 3562.04C4317.84 3569.28 4303.1 3571.13 4289 3567.29C4274.91 3563.43 4263.16 3554.31 4255.93 3541.63L4213.47 3467.18C4198.52 3440.98 4207.68 3407.51 4233.88 3392.57L4324.8 3340.72C4307.51 3286.51 4300.43 3230.39 4303.71 3173.59L4202.73 3145.95C4173.65 3137.99 4156.46 3107.86 4164.41 3078.77L4187.02 2996.1C4194.99 2967.01 4225.13 2949.82 4254.22 2957.78L4355.2 2985.41C4381.3 2934.85 4415.96 2890.15 4458.43 2852.3L4406.58 2761.38C4399.34 2748.69 4397.48 2733.93 4401.33 2719.85C4405.19 2705.76 4414.31 2694.02 4426.99 2686.77L4501.44 2644.31C4527.65 2629.36 4561.11 2638.53 4576.05 2664.72L4627.91 2755.63C4682.1 2738.34 4738.24 2731.27 4795.04 2734.54L4822.67 2633.57C4830.63 2604.48 4860.78 2587.29 4889.86 2595.25L4972.53 2617.86C5001.61 2625.83 5018.81 2655.96 5010.85 2685.06L4983.22 2786.03C5033.78 2812.13 5078.48 2846.79 5116.33 2889.27L5207.25 2837.42C5219.93 2830.17 5234.69 2828.31 5248.78 2832.17C5262.87 2836.03 5274.61 2845.14 5281.86 2857.83L5324.32 2932.28C5331.57 2944.97 5333.43 2959.73 5329.57 2973.81C5325.71 2987.9 5316.6 2999.65 5303.91 3006.89L5213 3058.74C5230.28 3112.95 5237.36 3169.05 5234.09 3225.87L5335.06 3253.5C5349.15 3257.36 5360.89 3266.46 5368.14 3279.16C5375.37 3291.84 5377.23 3306.6 5373.38 3320.69L5350.77 3403.37C5342.81 3432.46 5312.67 3449.64 5283.57 3441.69L5182.59 3414.05C5156.49 3464.63 5121.83 3509.32 5079.36 3547.17L5131.21 3638.09C5138.45 3650.78 5140.31 3665.52 5136.46 3679.62C5132.6 3693.71 5123.49 3705.46 5110.79 3712.69L5036.35 3755.15C5023.65 3762.39 5008.9 3764.24 4994.82 3760.39C4980.73 3756.54 4968.97 3747.42 4961.74 3734.73L4909.89 3643.81C4855.68 3661.1 4799.58 3668.19 4742.76 3664.9L4715.12 3765.88C4711.26 3779.97 4702.16 3791.72 4689.46 3798.95C4681.09 3803.75 4671.83 3806.18 4662.45 3806.18ZM4427.99 3472.46L4435.93 3481.83C4475.42 3528.53 4523.36 3565.71 4578.43 3592.35L4589.48 3597.7L4555.42 3722.19C4553.65 3728.68 4554.51 3735.47 4557.84 3741.3C4561.17 3747.15 4566.58 3751.34 4573.07 3753.11L4655.74 3775.73C4662.21 3777.51 4669.01 3776.64 4674.85 3773.32C4680.69 3769.99 4684.89 3764.58 4686.66 3758.09L4720.73 3633.6L4732.96 3634.62C4793.94 3639.73 4854.12 3632.13 4911.88 3612.04L4923.48 3608.02L4987.41 3720.11C4990.74 3725.96 4996.15 3730.15 5002.63 3731.92C5009.14 3733.71 5015.92 3732.85 5021.74 3729.51L5096.2 3687.05C5102.04 3683.71 5106.23 3678.31 5108.01 3671.82C5109.78 3665.34 5108.92 3658.55 5105.59 3652.71L5041.65 3540.61L5051.02 3532.68C5097.72 3493.2 5134.9 3445.25 5161.54 3390.18L5166.89 3379.13L5291.38 3413.2C5304.73 3416.84 5318.64 3408.95 5322.31 3395.56L5344.92 3312.88C5346.69 3306.4 5345.84 3299.61 5342.51 3293.77C5339.18 3287.94 5333.77 3283.73 5327.29 3281.96L5202.79 3247.9L5203.81 3235.67C5208.91 3174.7 5201.32 3114.51 5181.24 3056.75L5177.2 3045.16L5289.31 2981.22C5295.15 2977.89 5299.35 2972.48 5301.12 2966C5302.89 2959.52 5302.03 2952.73 5298.71 2946.89L5256.24 2872.44C5252.9 2866.6 5247.5 2862.4 5241.01 2860.63C5234.52 2858.86 5227.74 2859.72 5221.9 2863.04L5109.81 2926.98L5101.87 2917.61C5062.38 2870.92 5014.44 2833.74 4959.37 2807.09L4948.32 2801.75L4982.38 2677.26C4984.15 2670.77 4983.29 2663.98 4979.96 2658.14C4976.63 2652.31 4971.22 2648.12 4964.73 2646.33L4882.06 2623.72C4868.71 2620.05 4854.8 2627.97 4851.14 2641.36L4817.07 2765.85L4804.84 2764.83C4743.85 2759.7 4683.67 2767.32 4625.92 2787.4L4614.32 2791.44L4550.38 2679.33C4547.06 2673.49 4541.64 2669.29 4535.17 2667.52C4528.68 2665.76 4521.89 2666.61 4516.06 2669.93L4441.61 2712.4C4435.76 2715.74 4431.57 2721.14 4429.8 2727.62C4428.02 2734.11 4428.88 2740.9 4432.21 2746.74L4496.15 2858.83L4486.78 2866.76C4440.08 2906.26 4402.9 2954.19 4376.26 3009.27L4370.91 3020.31L4246.42 2986.25C4239.94 2984.48 4233.14 2985.32 4227.31 2988.67C4221.47 2992 4217.27 2997.41 4215.5 3003.89L4192.88 3086.56C4191.11 3093.05 4191.97 3099.84 4195.29 3105.67C4198.62 3111.51 4204.03 3115.71 4210.52 3117.48L4335.01 3151.54L4333.99 3163.78C4328.89 3224.74 4336.48 3284.94 4356.56 3342.69L4360.59 3354.29L4248.49 3418.22C4242.65 3421.55 4238.46 3426.96 4236.69 3433.44C4234.91 3439.93 4235.77 3446.72 4239.1 3452.55L4281.56 3527C4284.89 3532.84 4290.3 3537.04 4296.79 3538.81C4303.25 3540.59 4310.05 3539.74 4315.9 3536.4L4427.99 3472.46ZM4769.28 3446.41C4747.44 3446.41 4725.46 3443.48 4703.82 3437.57C4640.3 3420.19 4587.34 3379.11 4554.71 3321.9C4522.08 3264.69 4513.69 3198.19 4531.07 3134.67C4548.45 3071.14 4589.52 3018.18 4646.74 2985.56C4703.95 2952.93 4770.45 2944.54 4833.98 2961.92C4897.51 2979.3 4950.46 3020.38 4983.09 3077.59C5015.71 3134.79 5024.12 3201.28 5006.73 3264.81C4989.35 3328.34 4948.27 3381.29 4891.06 3413.92C4853.33 3435.43 4811.57 3446.4 4769.28 3446.41ZM4768.55 2982.59C4731.33 2982.59 4694.57 2992.25 4661.37 3011.19C4611.01 3039.9 4574.85 3086.52 4559.55 3142.44C4544.24 3198.36 4551.63 3256.89 4580.36 3307.25C4609.09 3357.6 4655.7 3393.77 4711.62 3409.07C4767.53 3424.36 4826.07 3416.97 4876.42 3388.25C4926.78 3359.53 4962.95 3312.91 4978.25 3257C4993.55 3201.08 4986.16 3142.55 4957.43 3092.19C4928.71 3041.83 4882.09 3005.67 4826.17 2990.37C4807.13 2985.17 4787.77 2982.59 4768.55 2982.59Z"/>
</mask>
<path d="M4662.45 3806.18C4657.61 3806.18 4652.73 3805.53 4647.92 3804.21L4565.25 3781.59C4536.16 3773.63 4518.97 3743.5 4526.93 3714.4L4554.57 3613.42C4504 3587.32 4459.3 3552.66 4421.45 3510.19L4330.53 3562.04C4317.84 3569.28 4303.1 3571.13 4289 3567.29C4274.91 3563.43 4263.16 3554.31 4255.93 3541.63L4213.47 3467.18C4198.52 3440.98 4207.68 3407.51 4233.88 3392.57L4324.8 3340.72C4307.51 3286.51 4300.43 3230.39 4303.71 3173.59L4202.73 3145.95C4173.65 3137.99 4156.46 3107.86 4164.41 3078.77L4187.02 2996.1C4194.99 2967.01 4225.13 2949.82 4254.22 2957.78L4355.2 2985.41C4381.3 2934.85 4415.96 2890.15 4458.43 2852.3L4406.58 2761.38C4399.34 2748.69 4397.48 2733.93 4401.33 2719.85C4405.19 2705.76 4414.31 2694.02 4426.99 2686.77L4501.44 2644.31C4527.65 2629.36 4561.11 2638.53 4576.05 2664.72L4627.91 2755.63C4682.1 2738.34 4738.24 2731.27 4795.04 2734.54L4822.67 2633.57C4830.63 2604.48 4860.78 2587.29 4889.86 2595.25L4972.53 2617.86C5001.61 2625.83 5018.81 2655.96 5010.85 2685.06L4983.22 2786.03C5033.78 2812.13 5078.48 2846.79 5116.33 2889.27L5207.25 2837.42C5219.93 2830.17 5234.69 2828.31 5248.78 2832.17C5262.87 2836.03 5274.61 2845.14 5281.86 2857.83L5324.32 2932.28C5331.57 2944.97 5333.43 2959.73 5329.57 2973.81C5325.71 2987.9 5316.6 2999.65 5303.91 3006.89L5213 3058.74C5230.28 3112.95 5237.36 3169.05 5234.09 3225.87L5335.06 3253.5C5349.15 3257.36 5360.89 3266.46 5368.14 3279.16C5375.37 3291.84 5377.23 3306.6 5373.38 3320.69L5350.77 3403.37C5342.81 3432.46 5312.67 3449.64 5283.57 3441.69L5182.59 3414.05C5156.49 3464.63 5121.83 3509.32 5079.36 3547.17L5131.21 3638.09C5138.45 3650.78 5140.31 3665.52 5136.46 3679.62C5132.6 3693.71 5123.49 3705.46 5110.79 3712.69L5036.35 3755.15C5023.65 3762.39 5008.9 3764.24 4994.82 3760.39C4980.73 3756.54 4968.97 3747.42 4961.74 3734.73L4909.89 3643.81C4855.68 3661.1 4799.58 3668.19 4742.76 3664.9L4715.12 3765.88C4711.26 3779.97 4702.16 3791.72 4689.46 3798.95C4681.09 3803.75 4671.83 3806.18 4662.45 3806.18ZM4427.99 3472.46L4435.93 3481.83C4475.42 3528.53 4523.36 3565.71 4578.43 3592.35L4589.48 3597.7L4555.42 3722.19C4553.65 3728.68 4554.51 3735.47 4557.84 3741.3C4561.17 3747.15 4566.58 3751.34 4573.07 3753.11L4655.74 3775.73C4662.21 3777.51 4669.01 3776.64 4674.85 3773.32C4680.69 3769.99 4684.89 3764.58 4686.66 3758.09L4720.73 3633.6L4732.96 3634.62C4793.94 3639.73 4854.12 3632.13 4911.88 3612.04L4923.48 3608.02L4987.41 3720.11C4990.74 3725.96 4996.15 3730.15 5002.63 3731.92C5009.14 3733.71 5015.92 3732.85 5021.74 3729.51L5096.2 3687.05C5102.04 3683.71 5106.23 3678.31 5108.01 3671.82C5109.78 3665.34 5108.92 3658.55 5105.59 3652.71L5041.65 3540.61L5051.02 3532.68C5097.72 3493.2 5134.9 3445.25 5161.54 3390.18L5166.89 3379.13L5291.38 3413.2C5304.73 3416.84 5318.64 3408.95 5322.31 3395.56L5344.92 3312.88C5346.69 3306.4 5345.84 3299.61 5342.51 3293.77C5339.18 3287.94 5333.77 3283.73 5327.29 3281.96L5202.79 3247.9L5203.81 3235.67C5208.91 3174.7 5201.32 3114.51 5181.24 3056.75L5177.2 3045.16L5289.31 2981.22C5295.15 2977.89 5299.35 2972.48 5301.12 2966C5302.89 2959.52 5302.03 2952.73 5298.71 2946.89L5256.24 2872.44C5252.9 2866.6 5247.5 2862.4 5241.01 2860.63C5234.52 2858.86 5227.74 2859.72 5221.9 2863.04L5109.81 2926.98L5101.87 2917.61C5062.38 2870.92 5014.44 2833.74 4959.37 2807.09L4948.32 2801.75L4982.38 2677.26C4984.15 2670.77 4983.29 2663.98 4979.96 2658.14C4976.63 2652.31 4971.22 2648.12 4964.73 2646.33L4882.06 2623.72C4868.71 2620.05 4854.8 2627.97 4851.14 2641.36L4817.07 2765.85L4804.84 2764.83C4743.85 2759.7 4683.67 2767.32 4625.92 2787.4L4614.32 2791.44L4550.38 2679.33C4547.06 2673.49 4541.64 2669.29 4535.17 2667.52C4528.68 2665.76 4521.89 2666.61 4516.06 2669.93L4441.61 2712.4C4435.76 2715.74 4431.57 2721.14 4429.8 2727.62C4428.02 2734.11 4428.88 2740.9 4432.21 2746.74L4496.15 2858.83L4486.78 2866.76C4440.08 2906.26 4402.9 2954.19 4376.26 3009.27L4370.91 3020.31L4246.42 2986.25C4239.94 2984.48 4233.14 2985.32 4227.31 2988.67C4221.47 2992 4217.27 2997.41 4215.5 3003.89L4192.88 3086.56C4191.11 3093.05 4191.97 3099.84 4195.29 3105.67C4198.62 3111.51 4204.03 3115.71 4210.52 3117.48L4335.01 3151.54L4333.99 3163.78C4328.89 3224.74 4336.48 3284.94 4356.56 3342.69L4360.59 3354.29L4248.49 3418.22C4242.65 3421.55 4238.46 3426.96 4236.69 3433.44C4234.91 3439.93 4235.77 3446.72 4239.1 3452.55L4281.56 3527C4284.89 3532.84 4290.3 3537.04 4296.79 3538.81C4303.25 3540.59 4310.05 3539.74 4315.9 3536.4L4427.99 3472.46ZM4769.28 3446.41C4747.44 3446.41 4725.46 3443.48 4703.82 3437.57C4640.3 3420.19 4587.34 3379.11 4554.71 3321.9C4522.08 3264.69 4513.69 3198.19 4531.07 3134.67C4548.45 3071.14 4589.52 3018.18 4646.74 2985.56C4703.95 2952.93 4770.45 2944.54 4833.98 2961.92C4897.51 2979.3 4950.46 3020.38 4983.09 3077.59C5015.71 3134.79 5024.12 3201.28 5006.73 3264.81C4989.35 3328.34 4948.27 3381.29 4891.06 3413.92C4853.33 3435.43 4811.57 3446.4 4769.28 3446.41ZM4768.55 2982.59C4731.33 2982.59 4694.57 2992.25 4661.37 3011.19C4611.01 3039.9 4574.85 3086.52 4559.55 3142.44C4544.24 3198.36 4551.63 3256.89 4580.36 3307.25C4609.09 3357.6 4655.7 3393.77 4711.62 3409.07C4767.53 3424.36 4826.07 3416.97 4876.42 3388.25C4926.78 3359.53 4962.95 3312.91 4978.25 3257C4993.55 3201.08 4986.16 3142.55 4957.43 3092.19C4928.71 3041.83 4882.09 3005.67 4826.17 2990.37C4807.13 2985.17 4787.77 2982.59 4768.55 2982.59Z" stroke="#7A7A7A" stroke-width="5.00155" mask="url(#path-14-inside-1_224_2)"/>
<path d="M4243.62 6853.67C4243.62 7298.19 4688.26 7612.43 4243.62 7612.43C3798.99 7612.43 3184.47 7298.19 3184.47 6853.67C3184.47 6409.14 3544.92 6048.78 3989.55 6048.78C4434.19 6048.78 4243.62 6409.14 4243.62 6853.67ZM3389.19 6853.67C3389.19 7185.16 3657.98 7453.89 3989.55 7453.89C4321.13 7453.89 4155.9 7185.16 4155.9 6853.67C4155.9 6522.17 4352.97 6098.15 4021.39 6098.15C3689.82 6098.15 3389.19 6522.17 3389.19 6853.67Z" fill="#1770B5" fill-opacity="0.15"/>
<path d="M5078.58 11450.6C5078.58 12149.5 5800.32 12643.6 5078.58 12643.6C4356.85 12643.6 3359.36 12149.5 3359.36 11450.6C3359.36 10751.7 3944.44 10185.2 4666.18 10185.2C5387.92 10185.2 5078.58 10751.7 5078.58 11450.6ZM3829.71 11450.6C3829.71 11971.8 4086.76 12387.8 4666.18 12301.7C5213.41 12136.3 4936.19 11971.8 4936.19 11450.6C4936.19 10929.4 5256.08 10262.8 4717.86 10262.8C4179.65 10262.8 3829.71 10929.4 3829.71 11450.6Z" fill="#1770B5" fill-opacity="0.15"/>
<path d="M4963.99 15140.7C4963.99 15585.3 5408.62 15899.5 4963.99 15899.5C4519.35 15899.5 3904.84 15585.3 3904.84 15140.7C3904.84 14696.2 4265.28 14335.8 4709.92 14335.8C5154.56 14335.8 4963.99 14696.2 4963.99 15140.7ZM4109.55 15140.7C4109.55 15472.2 4378.35 15740.9 4709.92 15740.9C5041.49 15740.9 4876.27 15472.2 4876.27 15140.7C4876.27 14809.2 5073.33 14385.2 4741.76 14385.2C4410.19 14385.2 4109.55 14809.2 4109.55 15140.7Z" fill="#1770B5" fill-opacity="0.15"/>
</g>
<defs>
<clipPath id="clip0_224_2">
<rect width="4693.81" height="20013" fill="white"/>
</clipPath>
</defs>
</svg>
